<svg xmlns="http://www.w3.org/2000/svg" xmlns:xlink="http://www.w3.org/1999/xlink" width="56" height="16" viewBox="0 0 56 16">
    <defs>
        <path id="a" d="M8.946 0a2.469 2.469 0 1 0 .002 4.938A2.469 2.469 0 0 0 8.946 0m0 4.51A1.889 1.889 0 0 1 7.13 2.104h3.633c.048.166.075.338.075.518a1.89 1.89 0 0 1-1.892 1.89zM21.281 0a2.469 2.469 0 1 1 0 4.938 2.469 2.469 0 0 1 0-4.938zm0 4.51a1.89 1.89 0 0 0 1.816-2.407h-3.634A1.89 1.89 0 0 0 21.28 4.51zM11.2 6.903c0-.573.425-1.035 1.064-1.035.61 0 1.063.392 1.063 1.035v3.023l3.489-3.666c.155-.169.424-.392.821-.392.539 0 1.05.406 1.05 1.008 0 .363-.227.658-.695 1.12l-2.68 2.603 3.276 3.371c.34.337.595.645.595 1.064 0 .66-.524.967-1.106.967-.41 0-.68-.238-1.077-.658l-3.673-3.92v3.57c0 .546-.426 1.008-1.063 1.008-.61 0-1.064-.392-1.064-1.008v-8.09zm-8.69.913H.963C.283 7.815 0 7.32 0 6.84c0-.494.355-.974.964-.974h5.219c.609 0 .964.48.964.974 0 .48-.284.974-.964.974H4.637V14.9c0 .706-.453 1.1-1.064 1.1-.61 0-1.064-.394-1.064-1.1V7.815zm17.757-.856c0-.7.454-1.092 1.064-1.092.609 0 1.062.392 1.062 1.092v7.95c0 .699-.453 1.091-1.062 1.091-.61 0-1.064-.392-1.064-1.091v-7.95zM8 6.959c0-.7.453-1.092 1.063-1.092.61 0 1.064.392 1.064 1.092v7.95c0 .699-.454 1.091-1.064 1.091C8.453 16 8 15.608 8 14.909v-7.95z"/>
    </defs>
    <g fill="none" fill-rule="evenodd">
        <g fill="#FF424E">
            <path d="M25.453 9.48v5.632a.881.881 0 0 1-.25.62.81.81 0 0 1-.609.268.82.82 0 0 1-.608-.26.873.873 0 0 1-.25-.628V6.778c-.02-.31.084-.554.313-.719.22-.157.448-.22.68-.181.23.037.417.155.553.348l4.315 6.148v-5.59c0-.236.084-.441.25-.613a.832.832 0 0 1 1.208 0 .84.84 0 0 1 .26.613v8.328a.86.86 0 0 1-.26.63.853.853 0 0 1-.62.258c-.245 0-.458-.11-.629-.317a.473.473 0 0 1-.08-.098l-4.273-6.104zM52.027 15.94l.002-.001-.001.001h-.001zm-5.001.003h-.05a.338.338 0 0 0-.078.032l-.047.01a.994.994 0 0 1-.173.015.553.553 0 0 1-.146-.015l-.06-.005a.975.975 0 0 1-.152-.06.384.384 0 0 1-.101-.063l-.04-.021a.888.888 0 0 1-.127-.121 1.533 1.533 0 0 0-.08-.089l-.027-.029c-.008-.04-.018-.058-.027-.08l-.015-.034-.02-.032-3.422-8.365a.91.91 0 0 1 .007-.672.8.8 0 0 1 .462-.47c.21-.099.43-.102.656-.01a.804.804 0 0 1 .466.479l2.633 6.413 1.7-4.176c.146-.363.422-.55.81-.55.388 0 .667.187.823.549l1.701 4.177 2.62-6.415a.855.855 0 0 1 .47-.476.832.832 0 0 1 .662 0c.22.092.377.256.465.487a.852.852 0 0 1-.008.667l-3.402 8.348a.541.541 0 0 1-.16.257.254.254 0 0 1-.015.036l-.014.029a.344.344 0 0 0-.1.067l-.03.03-.125.07-.057.017c-.021.008-.053.02-.106.037l-.046.005a.566.566 0 0 1-.146.015.57.57 0 0 1-.148-.015l-.06-.005a1.258 1.258 0 0 1-.11-.041.31.31 0 0 1-.161-.094.609.609 0 0 1-.217-.22.299.299 0 0 1-.1-.174l-1.73-4.22-1.726 4.212c-.012.035-.032.081-.06.142l-.097.106-.014.039-.015.029a.325.325 0 0 0-.088.067l-.03.03-.145.087zM37.225 16a4.985 4.985 0 0 1-3.289-1.246l-.553-.485.197.07.495.178c.541.193 1.1.236 1.67.127l.05-.003.026.01c.71.275 1.482.336 2.225.176a3.86 3.86 0 0 0 2.86-2.552l.087-.25.045.059.111.15c.023.025.025.029.032.037.187.252.346.542.488.89l.017.042-.001.033-.022.041a4.961 4.961 0 0 1-3.388 2.61 4.924 4.924 0 0 1-1.05.113zm-3.375-2.142c-.168 0-.343-.01-.521-.03l-.044-.005-.028-.016-.026-.035a4.93 4.93 0 0 1-.854-1.89 4.992 4.992 0 0 1 2.465-5.398l.636-.35-.131.16-.33.403a3.15 3.15 0 0 0-.609 1.209 2.354 2.354 0 0 0-.052.296l-.013.05-.02.023a3.863 3.863 0 0 0 .172 5.305l.2.198-.079.012-.2.028c-.183.026-.374.04-.566.04zm8.146-1.91a3.137 3.137 0 0 0-.619-1.31l-.016-.018c-.016-.015-.024-.022-.032-.033l-.029-.046-.002-.032a4.232 4.232 0 0 0-.07-.493 3.908 3.908 0 0 0-3.8-3.065 3.856 3.856 0 0 0-1.514.308l-.266.111.02-.078.056-.2.011-.047a4.08 4.08 0 0 1 .445-.974l.023-.036.024-.019.082-.02a.588.588 0 0 1 .064-.017 4.973 4.973 0 0 1 1.055-.112 5 5 0 0 1 4.861 3.92 4.892 4.892 0 0 1-.02 2.164l-.143.62-.13-.624z"/>
        </g>
        <g>
            <mask id="b" fill="#fff">
                <use xlink:href="#a"/>
            </mask>
            <use fill="#1BA8FF" xlink:href="#a"/>
            <g fill="#1BA8FF" mask="url(#b)">
                <path d="M0 0h24v16H0z"/>
            </g>
        </g>
    </g>
</svg>
